<?xml version="1.0" encoding="utf-8"?>
<!-- Generator: Adobe Illustrator 24.0.1, SVG Export Plug-In . SVG Version: 6.00 Build 0)  -->
<svg version="1.1" id="레이어_1" xmlns="http://www.w3.org/2000/svg" xmlns:xlink="http://www.w3.org/1999/xlink" x="0px"
	 y="0px" viewBox="0 0 160 28.3" style="enable-background:new 0 0 160 28.3;" xml:space="preserve">
<style type="text/css">
	.st0{fill:#555555;}
</style>
<g>
	<g>
		<g>
			<path class="st0" d="M10.1,22.7c-0.8,0.3-1.6,0.4-2.5,0.4c-1.3,0-2.5-0.3-3.6-0.8c-1.2-0.5-2.1-1.4-2.8-2.6
				C0.4,18.5,0,17.1,0,15.3c0-1.6,0.3-3.1,0.9-4.6c0.6-1.4,1.5-2.6,2.7-3.5c1.2-0.9,2.8-1.3,4.7-1.3c1,0,2,0.2,2.8,0.5
				c0.9,0.3,1.6,0.7,2.2,1.2L12,10.1c-0.5-0.4-1-0.8-1.7-1.1C9.7,8.7,9,8.5,8.2,8.5c-1.2,0-2.2,0.3-3,0.9c-0.8,0.6-1.5,1.4-1.9,2.4
				c-0.4,1-0.7,2.1-0.7,3.3c0,1.1,0.2,2,0.6,2.8c0.4,0.8,1,1.5,1.8,1.9c0.8,0.5,1.6,0.7,2.6,0.7c0.7,0,1.4-0.1,1.9-0.3
				c0.5-0.2,1-0.5,1.6-0.8l0.8,2.5C11.5,22.2,10.9,22.4,10.1,22.7z"/>
			<path class="st0" d="M28.1,22.8h-2.6l0.8-7.1h-7.7l-0.8,7.1h-2.6L17.1,6h2.6l-0.8,7h7.6l0.8-7H30L28.1,22.8z"/>
			<path class="st0" d="M41,18.9h-5.8l-2,3.9h-2.5l9-17.5H40l5,17.5H42L41,18.9z M40.4,16.5l-1.4-5.2l-2.7,5.2H40.4z"/>
		</g>
	</g>
	<g>
		<path class="st0" d="M102,6l-1.6,14.2h7.8l-0.3,2.6H97.6L99.5,6H102z"/>
		<path class="st0" d="M123.5,6l-0.3,2.5h-7.9l-0.5,4.6h7l-0.3,2.5h-7l-0.5,4.6h8.2l-0.3,2.6h-10.8L113,6H123.5z"/>
		<path class="st0" d="M129.4,22.1c-1.2-0.6-2.1-1.5-2.8-2.7c-0.7-1.2-1.1-2.7-1.1-4.4c0-1.4,0.3-2.8,1-4.3s1.6-2.6,3-3.5
			c1.3-0.9,2.9-1.4,4.7-1.4c1.3,0,2.5,0.3,3.7,0.9c1.2,0.6,2.1,1.5,2.8,2.7c0.7,1.2,1.1,2.7,1.1,4.4c0,1.4-0.3,2.8-1,4.3
			c-0.7,1.4-1.6,2.6-3,3.5c-1.3,0.9-2.9,1.4-4.7,1.4C131.8,23,130.5,22.7,129.4,22.1z M136.4,19.4c0.9-0.6,1.6-1.5,2-2.4
			c0.4-1,0.7-2,0.7-3c0-1-0.2-1.9-0.7-2.7c-0.4-0.8-1.1-1.5-1.8-2c-0.8-0.5-1.6-0.8-2.6-0.8c-1.3,0-2.4,0.3-3.3,1
			c-0.9,0.6-1.5,1.5-2,2.4c-0.4,1-0.6,2-0.6,3c0,1,0.2,1.9,0.6,2.8c0.4,0.9,1,1.5,1.8,2c0.8,0.5,1.6,0.7,2.6,0.7
			C134.4,20.4,135.5,20.1,136.4,19.4z"/>
		<path class="st0" d="M160,6l-2,17.4h-0.1l-10.1-11.8l-1.2,11.2h-2.5l2-17.4h0.1l10,11.9L157.5,6H160z"/>
	</g>
	<path class="st0" d="M51.1,0l-3.5,28.3h45.1L96.2,0H51.1z M71.8,22.8h-3.2l0.9-8.1l-6.1,7.9h0l-4.2-7.4l-0.9,7.6h-3l2-17.7h0
		l6.7,12.2l9.7-12.2h0L71.8,22.8z M88.5,8.9h-7.7l-0.4,3.8h6.8l-0.4,3.2H80l-0.4,3.7h8l-0.4,3.2H76l2-17h10.9L88.5,8.9z"/>
</g>
</svg>
